<?xml version="1.0" standalone="no"?>
<!DOCTYPE svg PUBLIC "-//W3C//DTD SVG 20010904//EN"
 "http://www.w3.org/TR/2001/REC-SVG-20010904/DTD/svg10.dtd">
<svg version="1.0" xmlns="http://www.w3.org/2000/svg"
 width="1280.000000pt" height="1004.000000pt" viewBox="0 0 1280.000000 1004.000000"
 preserveAspectRatio="xMidYMid meet">
<metadata>
Created by potrace 1.15, written by Peter Selinger 2001-2017
</metadata>
<g transform="translate(0.000000,1004.000000) scale(0.100000,-0.100000)"
fill="#668e7c" stroke="none">
<path d="M5915 10033 c-877 -33 -1608 -204 -2230 -522 -405 -207 -720 -441
-1124 -836 -670 -656 -1066 -1321 -1235 -2075 -56 -251 -78 -465 -77 -757 0
-399 38 -691 146 -1153 19 -80 53 -230 75 -335 126 -583 296 -1085 536 -1584
52 -107 93 -195 92 -197 -5 -5 -284 -36 -393 -44 l-110 -9 130 5 c72 2 191 7
265 10 l135 6 59 -109 c33 -59 100 -171 149 -248 50 -77 101 -159 114 -182 13
-23 37 -56 53 -73 33 -35 -15 -31 640 -50 490 -14 676 -25 1280 -71 2961 -225
5266 -512 7304 -910 196 -38 316 -57 327 -52 38 17 238 193 356 311 274 275
383 464 370 641 -7 92 -34 173 -122 356 -94 196 -117 271 -119 373 -1 79 1 85
26 107 14 12 46 25 70 29 131 20 177 131 165 397 -19 403 -175 693 -522 969
-44 35 -167 121 -273 191 l-193 127 -142 -67 c-78 -37 -351 -167 -607 -289
l-465 -221 -180 9 c-1166 59 -1999 281 -2317 618 -158 168 -281 478 -373 937
-29 146 -61 354 -70 460 l-6 70 1346 630 c741 347 1349 633 1351 637 4 5 -394
659 -512 843 -13 20 40 45 1351 635 750 338 1364 618 1365 621 0 3 -35 9 -77
13 -125 11 -604 73 -908 116 -352 51 -732 111 -1575 251 -1789 296 -2466 381
-3315 419 -197 9 -573 10 -760 3z"/>
</g>
</svg>
