<svg xmlns="http://www.w3.org/2000/svg" version="1.0" preserveAspectRatio="xMidYMid meet" viewBox="21.54 135.38 468.92 241.12">

<g transform="translate(0.000000,512.000000) scale(0.100000,-0.100000)" fill="#8BC6AD" stroke="none">
<path d="M2513 3751 c-17 -11 -37 -29 -43 -40 -10 -19 -20 -21 -110 -21 -82 0 -100 -3 -100 -15 0 -12 17 -15 95 -15 89 0 95 -1 95 -21 0 -21 -17 -148 -26 -186 l-4 -23 -366 -2 -366 -3 -1 -71 -2 -72 70 -7 c39 -3 93 -11 120 -17 50 -10 125 -46 125 -59 0 -9 -213 -23 -269 -17 -39 3 -41 2 -41 -24 l0 -28 130 0 130 0 0 -35 c0 -19 -1 -35 -2 -36 -2 0 -44 -6 -95 -13 -76 -10 -93 -10 -97 1 -8 20 -40 15 -63 -9 -30 -33 -43 -63 -43 -97 0 -17 -4 -31 -10 -31 -5 0 -9 25 -9 56 1 30 -2 58 -5 61 -3 3 -98 5 -211 5 -130 -1 -205 2 -205 8 0 6 22 10 49 10 55 0 61 7 61 75 0 70 -10 75 -166 75 l-134 0 0 -74 c0 -84 1 -85 100 -86 46 -1 52 -2 35 -12 -27 -15 -35 -28 -35 -60 0 -27 0 -27 -34 -13 -22 10 -118 18 -292 26 l-259 13 -56 -26 c-63 -29 -119 -75 -148 -122 -37 -60 -93 -415 -111 -711 -12 -177 1 -541 20 -616 14 -51 49 -99 99 -134 l43 -30 323 0 c178 0 326 3 330 7 4 3 0 17 -8 30 -20 31 -35 105 -43 217 l-7 93 59 -7 c85 -10 91 -12 98 -46 7 -35 26 -35 41 0 10 22 13 23 85 17 320 -28 437 -36 513 -36 105 0 120 -6 260 -98 212 -140 318 -175 527 -175 210 0 328 39 535 179 131 88 147 94 252 94 76 0 193 8 513 36 72 6 75 5 85 -17 15 -35 34 -35 41 0 7 34 13 36 97 46 l57 6 0 -43 c0 -82 -21 -213 -40 -252 -11 -22 -17 -42 -14 -45 3 -4 151 -6 329 -6 l323 0 43 30 c50 35 85 83 98 134 20 76 33 440 21 616 -18 296 -74 651 -111 711 -27 44 -79 89 -142 121 l-52 26 -264 -12 c-180 -8 -274 -16 -297 -26 l-34 -14 0 34 c0 27 -6 37 -27 49 -28 15 -27 15 27 16 99 1 100 2 100 86 l0 74 -134 0 c-156 0 -166 -5 -166 -75 0 -68 6 -75 61 -75 28 0 49 -5 49 -11 0 -7 -57 -10 -172 -9 -95 1 -190 2 -210 1 l-38 -1 0 -60 c0 -33 -4 -60 -10 -60 -5 0 -10 14 -10 31 0 68 -77 150 -101 107 -7 -12 -21 -13 -101 -2 -51 7 -94 13 -95 13 -2 1 -3 17 -3 36 l0 35 130 0 130 0 0 28 c0 26 -2 27 -41 24 -54 -6 -269 8 -269 17 0 12 84 51 130 60 25 5 77 13 115 16 l70 7 -2 72 -1 71 -365 3 -365 2 -6 28 c-8 38 -26 163 -26 185 0 15 11 17 95 17 78 0 95 3 95 15 0 12 -17 15 -96 15 l-97 0 -31 35 c-39 44 -80 53 -123 26z m90 -48 c18 -21 31 -70 47 -172 14 -97 4 -111 -84 -111 -85 0 -108 17 -100 73 14 103 36 192 51 209 21 23 65 23 86 1z m-549 -395 c3 -55 4 -103 1 -106 -3 -3 -5 13 -5 36 l0 42 -45 0 -45 0 0 65 0 65 43 0 44 0 7 -102z m51 32 c0 -54 -3 -65 -17 -68 -16 -3 -18 5 -18 68 0 63 2 71 18 68 14 -3 17 -14 17 -68z m85 0 c0 -63 -2 -70 -20 -70 -18 0 -20 7 -20 70 0 63 2 70 20 70 18 0 20 -7 20 -70z m58 2 c2 -49 0 -64 -13 -68 -9 -4 -15 -19 -15 -39 0 -19 -4 -37 -10 -40 -6 -4 -10 12 -10 39 0 25 5 46 10 46 6 0 10 29 10 66 0 48 3 65 13 62 7 -3 13 -28 15 -66z m52 -3 c0 -52 -3 -70 -12 -67 -13 5 -24 99 -14 124 14 36 26 9 26 -57z m80 1 c0 -68 -1 -70 -25 -70 -24 0 -25 2 -25 70 0 68 1 70 25 70 24 0 25 -2 25 -70z m410 0 c0 -68 -1 -70 -25 -70 -24 0 -25 2 -25 70 0 68 1 70 25 70 24 0 25 -2 25 -70z m60 5 c0 -37 4 -65 10 -65 6 0 10 -18 10 -40 0 -22 -4 -40 -10 -40 -5 0 -10 16 -10 35 0 24 -5 35 -15 35 -12 0 -15 14 -15 70 0 56 3 70 15 70 12 0 15 -14 15 -65z m50 0 c0 -37 4 -65 10 -65 6 0 10 -21 10 -46 0 -27 -4 -43 -10 -39 -5 3 -10 21 -10 40 0 20 -6 35 -15 39 -11 4 -15 21 -15 64 0 32 3 62 7 65 17 17 23 2 23 -58z m70 -5 c0 -63 -2 -70 -20 -70 -18 0 -20 7 -20 70 0 63 2 70 20 70 18 0 20 -7 20 -70z m83 63 c2 -5 7 -51 9 -103 3 -52 3 -80 1 -62 -3 24 -9 32 -24 32 -17 0 -19 7 -19 70 0 54 3 70 14 70 8 0 17 -3 19 -7z m107 -58 l0 -65 -45 0 -45 0 0 65 0 65 45 0 45 0 0 -65z m-523 -50 c67 -28 102 -64 143 -145 37 -74 41 -78 80 -85 l40 -7 0 -59 0 -59 -340 0 -340 0 0 59 0 59 40 7 c38 6 42 11 81 86 25 47 56 91 75 106 68 51 153 66 221 38z m-367 -55 c0 -22 -4 -40 -10 -40 -5 0 -10 18 -10 40 0 22 5 40 10 40 6 0 10 -18 10 -40z m47 -27 c-2 -16 -4 -5 -4 22 0 28 2 40 4 28 2 -13 2 -35 0 -50z m490 0 c-2 -16 -4 -5 -4 22 0 28 2 40 4 28 2 -13 2 -35 0 -50z m-867 -208 c0 -29 -28 -83 -48 -94 -23 -12 -64 -14 -111 -5 -28 6 -31 10 -31 44 0 45 13 57 65 63 95 9 125 7 125 -8z m1416 -6 c7 -5 14 -27 16 -48 3 -38 2 -39 -32 -45 -87 -14 -130 2 -149 56 -21 60 -20 61 72 53 45 -4 87 -11 93 -16z m-1748 -71 c3 -28 3 -28 -60 -28 -91 0 -271 -22 -256 -32 7 -4 24 -8 38 -9 l25 -1 -25 -8 c-14 -4 -40 -8 -57 -9 -25 -1 -33 3 -33 17 0 9 -3 34 -6 54 l-6 37 98 4 c55 2 140 3 189 3 l90 -1 3 -27z m2281 17 c1 -2 0 -27 -4 -54 -7 -49 -8 -51 -38 -50 -18 1 -43 5 -57 9 l-25 8 25 1 c113 5 -72 41 -212 41 -61 0 -73 8 -63 41 7 21 10 21 189 14 99 -4 183 -9 185 -10z m-2686 -52 c18 -58 9 -174 -21 -274 -23 -76 -42 -235 -42 -349 l0 -80 -112 1 -113 1 51 15 51 15 7 127 c17 313 39 468 77 544 22 42 25 43 51 20 17 -15 18 -15 18 5 0 38 17 24 33 -25z m2747 25 c0 -21 0 -21 20 -3 18 16 22 17 34 4 43 -46 69 -193 87 -492 l13 -203 50 -16 51 -16 -111 -1 -111 -1 -7 148 c-6 152 -23 262 -49 324 -17 40 -24 166 -13 213 15 59 17 65 27 65 5 0 9 -10 9 -22z m-2047 -99 c77 -6 152 -9 168 -5 32 6 42 -3 29 -24 -14 -22 -178 -16 -286 10 -92 22 -148 46 -84 36 19 -3 97 -11 173 -17z m1505 11 c-28 -17 -179 -48 -266 -55 -68 -6 -87 -4 -108 10 -14 9 -24 19 -21 21 2 3 60 7 128 10 68 3 151 9 184 13 33 5 69 9 80 9 18 1 18 0 3 -8z m-1585 -96 l37 -6 0 -79 0 -79 33 0 c18 0 38 5 43 10 7 7 56 10 125 8 l114 -3 0 -65 0 -65 -120 -7 c-76 -4 -122 -2 -126 4 -13 20 -44 3 -47 -26 -4 -29 -3 -29 40 -23 24 4 53 10 66 13 l23 7 -3 -109 -3 -108 -39 -8 c-21 -5 -170 -7 -330 -6 l-291 3 102 71 102 71 -48 47 -49 48 -106 -7 c-58 -4 -109 -8 -113 -9 -5 0 -9 9 -11 20 -4 27 10 32 113 45 44 6 81 12 83 13 2 2 -4 31 -12 64 -24 92 -21 127 13 151 16 12 53 25 82 30 52 9 244 6 322 -5z m1786 5 c86 -14 121 -39 121 -88 0 -20 -7 -63 -15 -95 -9 -33 -14 -60 -13 -62 2 -1 39 -7 83 -13 101 -12 117 -19 113 -43 -4 -22 3 -22 -126 -13 l-103 7 -49 -48 -49 -48 102 -70 102 -71 -291 -3 c-274 -2 -365 3 -364 21 0 4 0 52 0 108 0 91 2 100 17 95 9 -4 37 -10 61 -13 43 -6 44 -6 40 23 -3 29 -34 46 -47 26 -4 -6 -50 -8 -126 -4 l-120 7 0 65 0 65 114 3 c69 2 118 -1 125 -8 5 -5 25 -10 43 -10 l33 0 0 79 0 80 43 5 c38 6 82 9 202 14 22 1 69 -3 104 -9z m-1429 -44 l0 -45 -130 0 -130 0 0 45 0 45 130 0 130 0 0 -45z m1020 0 l0 -45 -125 0 -125 0 0 45 0 45 125 0 125 0 0 -45z m-2397 -648 c2 -95 2 -96 -29 -129 -47 -49 -54 -69 -54 -150 l0 -73 23 40 c13 23 33 42 47 46 47 13 176 9 336 -11 230 -28 494 -50 609 -50 55 0 118 -5 139 -11 22 -6 87 -42 144 -81 120 -80 240 -140 327 -163 33 -9 110 -19 170 -22 216 -11 368 37 588 185 57 39 122 75 143 81 21 6 84 11 139 11 118 0 369 21 615 51 108 13 207 20 259 17 76 -4 86 -7 108 -32 12 -15 23 -34 23 -42 0 -10 -8 -5 -24 13 -23 27 -29 28 -125 31 -55 2 -155 -3 -223 -12 -202 -26 -414 -45 -568 -51 -224 -9 -216 -7 -342 -91 -227 -151 -333 -187 -548 -187 -215 0 -321 36 -548 187 -126 84 -118 82 -342 91 -154 6 -366 25 -568 51 -68 9 -167 14 -222 12 -111 -3 -128 -12 -150 -78 -7 -22 -17 -37 -21 -34 -13 8 -11 202 2 227 6 12 24 34 40 49 32 29 34 41 30 163 -2 59 0 77 8 69 7 -6 12 -51 14 -107z m3569 -130 c14 -12 31 -32 37 -44 14 -27 15 -220 1 -228 -12 -7 -13 6 -10 111 2 89 -5 111 -53 162 -31 32 -31 34 -29 128 3 136 16 140 22 6 5 -106 6 -113 32 -135z m-2228 218 c98 -30 136 -76 136 -162 0 -53 0 -53 -32 -54 -18 0 -127 -6 -241 -12 -200 -12 -209 -11 -225 7 -29 33 -93 54 -247 82 l-150 28 -215 -18 c-118 -9 -241 -20 -274 -23 -48 -5 -58 -4 -54 8 4 11 148 30 624 85 340 39 621 72 624 73 3 0 27 -6 54 -14z m1516 -60 c333 -37 609 -72 614 -76 5 -5 7 -11 4 -14 -3 -3 -124 4 -269 16 l-263 23 -135 -23 c-172 -30 -224 -45 -262 -79 l-30 -27 -207 12 c-114 6 -222 12 -239 12 -33 1 -33 1 -33 51 0 55 15 94 49 124 26 23 119 56 146 51 11 -2 292 -34 625 -70z m-997 -7 c28 -14 20 -26 -25 -39 -81 -21 -219 4 -189 34 25 25 170 29 214 5z m87 -450 c0 -5 -18 -21 -41 -37 -55 -40 -132 -56 -203 -41 -50 10 -136 60 -136 78 0 4 86 7 190 7 105 0 190 -3 190 -7z"/>
</g>
</svg>