<svg xmlns="http://www.w3.org/2000/svg" version="1.0" preserveAspectRatio="xMidYMid meet" viewBox="90.57 47.25 677.25 508.75">

<g transform="translate(0.000000,556.000000) scale(0.100000,-0.100000)" fill="#50A17E" stroke="none">
<path d="M2047 5075 c-219 -30 -356 -82 -430 -165 -62 -69 -159 -213 -213 -317 -25 -48 -58 -98 -72 -110 -26 -20 -27 -25 -26 -115 1 -149 21 -425 39 -533 25 -156 71 -319 119 -420 24 -51 48 -95 55 -99 22 -14 10 -25 -53 -46 -75 -25 -141 -66 -188 -118 -18 -20 -60 -53 -92 -72 -89 -54 -168 -135 -203 -210 -50 -105 -55 -149 -47 -400 5 -179 3 -264 -11 -415 -25 -267 -26 -496 -1 -555 12 -31 21 -88 27 -180 12 -183 23 -226 83 -304 19 -26 43 -72 53 -103 13 -40 34 -74 74 -119 31 -34 62 -79 69 -100 27 -83 68 -113 152 -115 24 0 52 -4 63 -9 19 -7 18 -8 -6 -18 -31 -12 -35 -26 -45 -156 -3 -55 -13 -116 -22 -135 -19 -46 -57 -175 -66 -223 l-7 -38 867 0 c821 0 866 1 859 18 -4 9 -17 58 -30 107 -24 93 -23 133 3 172 10 16 12 35 7 65 -11 68 -8 167 9 243 25 111 41 349 29 428 -5 37 -6 67 -1 67 28 0 89 -37 124 -76 39 -42 43 -44 100 -45 136 -3 180 4 299 48 78 29 148 88 170 141 8 18 26 93 41 165 22 113 26 168 31 377 5 247 -5 419 -27 446 -7 7 -44 29 -83 49 -40 19 -104 61 -144 92 -39 32 -108 87 -153 123 -141 112 -147 117 -132 131 19 20 14 43 -17 73 -21 20 -32 44 -41 89 -7 40 -20 71 -36 88 -14 15 -45 71 -69 124 -53 118 -87 168 -130 195 -38 23 -61 24 -206 8 -85 -9 -112 -9 -137 1 -18 8 -32 16 -32 20 0 3 20 30 44 60 53 65 132 213 182 342 20 51 45 114 56 138 14 30 18 54 13 77 -3 21 0 44 8 61 8 15 17 70 20 121 4 72 10 98 26 118 19 24 21 40 21 157 0 120 -2 133 -22 154 -12 13 -30 59 -44 113 -29 114 -98 256 -167 340 -90 111 -219 181 -436 236 -105 27 -117 27 -254 9z m-567 -720 c113 -36 352 -73 655 -101 194 -18 604 -24 698 -11 51 7 61 13 78 40 l19 32 -6 -60 c-12 -117 -53 -341 -78 -425 -40 -139 -60 -176 -108 -206 -160 -102 -457 -150 -683 -110 -355 63 -585 188 -667 362 l-31 67 7 241 c3 132 9 255 13 271 7 30 7 29 32 -27 23 -52 30 -59 71 -73z m-5 -1225 c26 -11 55 -20 66 -20 17 0 19 -8 19 -74 0 -40 3 -95 7 -121 l6 -47 -50 7 c-59 8 -106 -12 -208 -87 l-61 -45 4 101 c5 145 43 249 105 286 40 25 54 25 112 0z m1101 -38 c-5 -9 -42 -23 -126 -50 -8 -2 8 12 37 32 28 19 55 41 58 47 5 8 12 6 22 -4 9 -8 13 -20 9 -25z m388 -15 c29 -38 90 -167 82 -174 -10 -11 -29 12 -51 62 -21 47 -27 53 -62 58 -21 4 -68 7 -104 7 -42 0 -72 5 -85 15 -10 8 -17 15 -14 15 3 0 37 11 75 25 98 34 128 33 159 -8z m-1036 -96 l40 -14 4 -59 3 -60 -77 81 c-100 106 -115 132 -55 93 25 -15 63 -34 85 -41z m17 -611 c22 -30 64 -82 94 -115 29 -33 76 -97 103 -142 l50 -81 37 5 c20 3 70 16 111 29 41 13 90 24 108 24 20 0 32 5 32 13 0 47 -96 429 -131 519 -19 52 -24 57 -65 68 -57 16 -52 21 14 13 l52 -6 30 -96 c53 -172 99 -348 111 -431 l12 -80 72 0 c39 0 98 7 130 16 61 16 181 12 231 -7 20 -7 24 -4 33 24 22 70 40 188 47 307 4 69 12 143 19 165 18 62 9 -218 -13 -380 l-17 -131 27 -22 c15 -12 44 -30 64 -38 20 -9 60 -31 87 -49 54 -37 207 -181 232 -219 9 -13 18 -54 20 -92 l5 -69 -18 65 c-10 36 -23 74 -29 85 -22 40 -238 241 -273 254 -19 7 -57 23 -85 36 -119 56 -234 69 -335 39 -43 -13 -76 -15 -156 -9 -95 6 -109 5 -215 -25 -63 -18 -115 -34 -117 -35 -2 -2 4 -29 14 -60 15 -54 15 -97 -1 -150 -5 -15 1 -25 25 -38 26 -16 35 -16 63 -6 28 10 40 9 78 -8 25 -11 61 -34 81 -52 25 -22 46 -31 70 -31 39 0 107 -40 153 -90 17 -18 53 -47 82 -65 28 -19 62 -48 75 -65 13 -18 33 -36 45 -41 27 -10 55 -95 55 -167 0 -39 6 -53 32 -80 l31 -33 -40 17 -39 16 -27 -30 c-18 -20 -31 -51 -39 -89 -23 -117 -37 -146 -103 -210 -34 -33 -84 -78 -112 -98 l-50 -38 -160 7 c-142 6 -178 4 -317 -18 -169 -27 -187 -26 -254 16 -84 54 -149 80 -227 92 -162 27 -195 51 -328 244 -56 81 -142 201 -190 268 -110 152 -157 230 -164 274 -5 30 -3 29 9 -10 9 -25 34 -67 57 -95 76 -91 220 -289 271 -374 62 -101 155 -199 223 -233 28 -14 86 -35 131 -46 100 -26 160 -51 214 -91 59 -43 107 -47 252 -22 141 24 199 26 314 9 120 -17 142 -8 267 109 56 53 108 107 115 120 7 14 20 57 28 96 10 49 23 80 40 98 35 36 43 117 19 189 -20 59 -85 139 -154 187 -25 17 -64 50 -85 72 -41 43 -113 77 -144 69 -13 -4 -36 7 -63 29 -80 63 -142 81 -169 48 -10 -13 -18 -10 -56 16 -25 17 -42 34 -39 39 3 5 10 34 16 64 9 50 7 61 -21 135 -36 93 -57 126 -155 241 -108 126 -182 247 -247 403 -32 76 -58 142 -58 145 1 4 40 -72 88 -168 48 -97 105 -200 127 -230z m-996 -715 c0 -5 -4 -3 -9 5 -5 8 -9 22 -9 30 0 16 17 -16 18 -35z"/>
<path d="M5917 5055 c-219 -30 -356 -82 -430 -165 -62 -69 -159 -213 -213 -317 -25 -48 -58 -98 -72 -110 -26 -20 -27 -25 -26 -115 1 -149 21 -425 39 -533 25 -156 71 -319 119 -420 24 -51 48 -95 55 -99 22 -14 10 -25 -53 -46 -75 -25 -141 -66 -188 -118 -18 -20 -60 -53 -92 -72 -89 -54 -168 -135 -203 -210 -50 -105 -55 -149 -47 -400 5 -179 3 -264 -11 -415 -25 -267 -26 -496 -1 -555 12 -31 21 -88 27 -180 12 -183 23 -226 83 -304 19 -26 43 -72 53 -103 13 -40 34 -74 74 -119 31 -34 62 -79 69 -100 27 -83 68 -113 152 -115 24 0 52 -4 63 -9 19 -7 18 -9 -7 -19 -16 -6 -28 -12 -29 -13 0 -2 -6 -59 -14 -128 -8 -82 -22 -151 -39 -200 -15 -41 -33 -101 -41 -133 l-13 -57 859 0 c472 0 859 1 859 3 0 1 -11 45 -24 97 -25 98 -24 137 2 177 10 16 12 35 7 65 -11 68 -8 167 9 243 25 111 41 349 29 428 -5 37 -6 67 -1 67 28 0 89 -37 124 -76 39 -42 43 -44 100 -45 136 -3 180 4 299 48 78 29 148 88 170 141 8 18 26 93 41 165 22 113 26 168 31 377 5 247 -5 419 -27 446 -7 7 -44 29 -83 49 -40 19 -104 61 -144 92 -39 32 -108 87 -153 123 -141 112 -147 117 -132 131 19 20 14 43 -17 73 -21 20 -32 44 -41 89 -7 40 -20 71 -36 88 -14 15 -45 71 -69 124 -53 118 -87 168 -130 195 -38 23 -61 24 -206 8 -85 -9 -112 -9 -137 1 -18 8 -32 16 -32 20 0 3 20 30 44 60 53 65 132 213 182 342 20 51 45 114 56 138 14 30 18 54 13 77 -3 21 0 44 8 61 8 15 17 70 20 121 4 72 10 98 26 118 19 24 21 40 21 157 0 120 -2 133 -22 154 -12 13 -30 59 -44 113 -29 114 -98 256 -167 340 -90 111 -219 181 -436 236 -105 27 -117 27 -254 9z m-567 -720 c113 -36 352 -73 655 -101 194 -18 604 -24 698 -11 51 7 61 13 78 40 l19 32 -6 -60 c-12 -117 -53 -341 -78 -425 -40 -139 -60 -176 -108 -206 -160 -102 -457 -150 -683 -110 -355 63 -585 188 -667 362 l-31 67 7 241 c3 132 9 255 13 271 7 30 7 29 32 -27 23 -52 30 -59 71 -73z m-5 -1225 c26 -11 55 -20 66 -20 17 0 19 -8 19 -74 0 -40 3 -95 7 -121 l6 -47 -50 7 c-59 8 -106 -12 -208 -87 l-61 -45 4 101 c5 145 43 249 105 286 40 25 54 25 112 0z m1101 -38 c-5 -9 -42 -23 -126 -50 -8 -2 8 12 37 32 28 19 55 41 58 47 5 8 12 6 22 -4 9 -8 13 -20 9 -25z m388 -15 c29 -38 90 -167 82 -174 -10 -11 -29 12 -51 62 -21 47 -27 53 -62 58 -21 4 -68 7 -104 7 -42 0 -72 5 -85 15 -10 8 -17 15 -14 15 3 0 37 11 75 25 98 34 128 33 159 -8z m-1036 -96 l40 -14 4 -59 3 -60 -77 81 c-100 106 -115 132 -55 93 25 -15 63 -34 85 -41z m17 -611 c22 -30 64 -82 94 -115 29 -33 76 -97 103 -142 l50 -81 37 5 c20 3 70 16 111 29 41 13 90 24 108 24 20 0 32 5 32 13 0 47 -96 429 -131 519 -19 52 -24 57 -65 68 -57 16 -52 21 14 13 l52 -6 30 -96 c53 -172 99 -348 111 -431 l12 -80 72 0 c39 0 98 7 130 16 61 16 181 12 231 -7 20 -7 24 -4 33 24 22 70 40 188 47 307 4 69 12 143 19 165 18 62 9 -218 -13 -380 l-17 -131 27 -22 c15 -12 44 -30 64 -38 20 -9 60 -31 87 -49 54 -37 207 -181 232 -219 9 -13 18 -54 20 -92 l5 -69 -18 65 c-10 36 -23 74 -29 85 -22 40 -238 241 -273 254 -19 7 -57 23 -85 36 -119 56 -234 69 -335 39 -43 -13 -76 -15 -156 -9 -95 6 -109 5 -215 -25 -63 -18 -115 -34 -117 -35 -2 -2 4 -29 14 -60 15 -54 15 -97 -1 -150 -5 -15 1 -25 25 -38 26 -16 35 -16 63 -6 28 10 40 9 78 -8 25 -11 61 -34 81 -52 25 -22 46 -31 70 -31 39 0 107 -40 153 -90 17 -18 53 -47 82 -65 28 -19 62 -48 75 -65 13 -18 33 -36 45 -41 27 -10 55 -95 55 -167 0 -39 6 -53 32 -80 l31 -33 -40 17 -39 16 -27 -30 c-18 -20 -31 -51 -39 -89 -23 -117 -37 -146 -103 -210 -34 -33 -84 -78 -112 -98 l-50 -38 -160 7 c-142 6 -178 4 -317 -18 -169 -27 -187 -26 -254 16 -84 54 -149 80 -227 92 -162 27 -195 51 -328 244 -56 81 -142 201 -190 268 -110 152 -157 230 -164 274 -5 30 -3 29 9 -10 9 -25 34 -67 57 -95 76 -91 220 -289 271 -374 62 -101 155 -199 223 -233 28 -14 86 -35 131 -46 100 -26 160 -51 214 -91 59 -43 107 -47 252 -22 141 24 199 26 314 9 120 -17 142 -8 267 109 56 53 108 107 115 120 7 14 20 57 28 96 10 49 23 80 40 98 35 36 43 117 19 189 -20 59 -85 139 -154 187 -25 17 -64 50 -85 72 -41 43 -113 77 -144 69 -13 -4 -36 7 -63 29 -80 63 -142 81 -169 48 -10 -13 -18 -10 -56 16 -25 17 -42 34 -39 39 3 5 10 34 16 64 9 50 7 61 -21 135 -36 93 -57 126 -155 241 -108 126 -182 247 -247 403 -32 76 -58 142 -58 145 1 4 40 -72 88 -168 48 -97 105 -200 127 -230z m-996 -715 c0 -5 -4 -3 -9 5 -5 8 -9 22 -9 30 0 16 17 -16 18 -35z"/>
</g>
</svg>