<?xml version="1.0" ?><svg height="32" id="svg4063" version="1.1" viewBox="0 0 32 32.000001" width="32" xmlns="http://www.w3.org/2000/svg" xmlns:cc="http://creativecommons.org/ns#" xmlns:dc="http://purl.org/dc/elements/1.1/" xmlns:inkscape="http://www.inkscape.org/namespaces/inkscape" xmlns:rdf="http://www.w3.org/1999/02/22-rdf-syntax-ns#" xmlns:sodipodi="http://sodipodi.sourceforge.net/DTD/sodipodi-0.dtd" xmlns:svg="http://www.w3.org/2000/svg"><defs id="defs4065"/><g id="layer1" transform="translate(0,-1020.3621)"><g id="g7050"><path d="m 2.50011,1049.8616 25,0 0,-22.551" id="path5006" style="opacity:1;fill:#4788f4;fill-opacity:1;stroke:none;stroke-width:1;stroke-linecap:round;stroke-linejoin:round;stroke-miterlimit:4.0999999;stroke-dasharray:none"/><path d="m 27.50011,1049.8616 0,-22.551 -12.5,11.2755 z" id="path5012" style="opacity:1;fill:#cdcdcd;fill-opacity:1;stroke:none;stroke-width:1;stroke-linecap:round;stroke-linejoin:round;stroke-miterlimit:4.0999999;stroke-dasharray:none"/><path d="m 2.50036,1024.8626 0,25 21.47656,-21.4336 c -0.0124,-0.012 -0.0269,-0.019 -0.0391,-0.031 -0.31496,-0.3131 -0.45662,-0.7307 -0.43359,-1.1407 l -2.36133,-2.3945 -18.64258,0 z" id="path5008" style="opacity:1;fill:#34a853;fill-opacity:1;stroke:none;stroke-width:1;stroke-linecap:round;stroke-linejoin:round;stroke-miterlimit:4.0999999;stroke-dasharray:none"/><path d="m 20.95323,1029.2874 -18.45312,18.4531 0,2.1211 2.12109,0 18.2793,-18.2793 -1.08203,-1.0762 a 4.4999724,4.478532 0 0 1 -0.86524,-1.2187 z" id="path5010" style="opacity:1;fill:#ffffff;fill-opacity:1;stroke:none;stroke-width:1;stroke-linecap:round;stroke-linejoin:round;stroke-miterlimit:4.0999999;stroke-dasharray:none"/><path d="m 25.37902,1049.8616 -10.37891,-10.3789 -0.93946,-3.0605 3.06055,0.9394 10.37891,10.3789 -6.8e-4,2.1211 z" id="path5014" style="opacity:1;fill:#ffffff;fill-opacity:1;stroke:none;stroke-width:1;stroke-linecap:round;stroke-linejoin:round;stroke-miterlimit:4.0999999;stroke-dasharray:none"/><path d="m 21.14211,1024.8616 -18.642,0 0,25 25,0 0,-18.551" id="path5016" style="opacity:1;fill:none;stroke:none;stroke-width:1;stroke-linecap:round;stroke-linejoin:round;stroke-miterlimit:4.0999999;stroke-dasharray:none"/><path d="m 20.95323,1029.2874 -18.45312,18.4531 0,2.1211 2.12109,0 18.2793,-18.2793 -1.08203,-1.0762 a 4.4999724,4.478532 0 0 1 -0.86524,-1.2187 z" id="path5018" style="opacity:1;fill:none;stroke:none;stroke-width:1;stroke-linecap:round;stroke-linejoin:round;stroke-miterlimit:4.0999999;stroke-dasharray:none"/><path d="m 7.4785156,1026.3965 c -0.8515799,0.1121 -1.6674122,0.4975 -2.3066406,1.1367 -1.2784787,1.2784 -1.5407344,3.2623 -0.6367188,4.8281 0.9040159,1.5658 2.7536199,2.3313 4.5,1.8633 1.7463858,-0.4679 2.9648208,-2.0553 2.9648438,-3.8633 l 0,-0.5 -4,0 0,1 2.830078,0 c -0.206682,1.1223 -0.9185985,2.0946 -2.0527342,2.3985 -1.3138799,0.352 -2.6948759,-0.2205 -3.375,-1.3985 -0.6801244,-1.178 -0.4852588,-2.6593 0.4765624,-3.6211 0.9618432,-0.9618 2.443107,-1.1567 3.6210938,-0.4765 l 0.5,-0.8653 c -0.7828966,-0.452 -1.6699045,-0.614 -2.5214844,-0.5019 z" id="path5020" style="color:#000000;font-style:normal;font-variant:normal;font-weight:normal;font-stretch:normal;font-size:medium;line-height:normal;font-family:sans-serif;text-indent:0;text-align:start;text-decoration:none;text-decoration-line:none;text-decoration-style:solid;text-decoration-color:#000000;letter-spacing:normal;word-spacing:normal;text-transform:none;direction:ltr;block-progression:tb;writing-mode:lr-tb;baseline-shift:baseline;text-anchor:start;white-space:normal;clip-rule:nonzero;display:inline;overflow:visible;visibility:visible;opacity:1;isolation:auto;mix-blend-mode:normal;color-interpolation:sRGB;color-interpolation-filters:linearRGB;solid-color:#000000;solid-opacity:1;fill:#efefef;fill-opacity:1;fill-rule:nonzero;stroke:none;stroke-width:1;stroke-linecap:butt;stroke-linejoin:miter;stroke-miterlimit:4.0999999;stroke-dasharray:none;stroke-dashoffset:0;stroke-opacity:1;color-rendering:auto;image-rendering:auto;shape-rendering:auto;text-rendering:auto;enable-background:accumulate"/><path d="m 25.37902,1049.8616 -10.37891,-10.3789 2.12109,-2.1211 10.37891,10.3789" id="path5022" style="opacity:1;fill:none;stroke:none;stroke-width:1;stroke-linecap:round;stroke-linejoin:round;stroke-miterlimit:4.0999999;stroke-dasharray:none"/><path d="m 24.99943,1022.8616 a 4.4999724,4.478532 0 0 0 -4.15625,2.7637 4.4999724,4.478532 0 0 0 0.97461,4.8808 l 3.18164,3.168 3.18164,-3.168 a 4.4999724,4.478532 0 0 0 0.97656,-4.8808 4.4999724,4.478532 0 0 0 -4.1582,-2.7637 z m 0.0215,2.9844 a 1.5012409,1.4935631 0 0 1 1.03907,0.4375 1.5012409,1.4935631 0 0 1 0,2.1133 1.5012409,1.4935631 0 0 1 -2.12305,0 1.5012409,1.4935631 0 0 1 0,-2.1133 1.5012409,1.4935631 0 0 1 1.08398,-0.4375 z" id="path5024" style="opacity:1;fill:#ea4335;fill-opacity:1;stroke:none;stroke-width:1.00000572;stroke-linecap:round;stroke-linejoin:round;stroke-miterlimit:4.0999999;stroke-dasharray:none"/><path d="m 24.99875,1022.8616 a 4.4999724,4.478532 0 0 0 -4.15625,2.7637 4.4999724,4.478532 0 0 0 0.9746,4.8808 l 3.18165,3.168 3.18164,-3.168 a 4.4999724,4.478532 0 0 0 0.97656,-4.8808 4.4999724,4.478532 0 0 0 -4.1582,-2.7637 z" id="path5026" style="opacity:1;fill:none;stroke:none;stroke-width:1.00000572;stroke-linecap:round;stroke-linejoin:round;stroke-miterlimit:4.0999999;stroke-dasharray:none"/></g></g></svg>