<?xml version="1.0"?>
<svg xmlns:rdf="http://www.w3.org/1999/02/22-rdf-syntax-ns#" xmlns="http://www.w3.org/2000/svg" xmlns:cc="http://creativecommons.org/ns#" xmlns:dc="http://purl.org/dc/elements/1.1/" xmlns:svg="http://www.w3.org/2000/svg" id="svg2" viewBox="0 0 553.89 583.25" version="1.1">
  <g id="layer1" transform="translate(-52.53 -151.15)">
    <g id="g4788">
      <path id="path4736" stroke-linejoin="round" style="color:#000000" d="m389.67 311.12c-7.2174-4.8294-14.212-9.2335-14.226-9.6222-0.0469-1.3536 11.521-14.049 15.565-17.135 2.5163-1.9196 6.3899-3.3771 8.1723-3.3771 4.0286 0 8.3541 4.6015 10.49 9.4304 2.0025 4.5269 1.0228 7.4016-2.6793 18.108-1.0713 3.0984-2.5808 6.5936-2.6953 8.0967-0.11453 1.5031 1.0434 4.7262 0.76085 4.6912s-8.1713-5.363-15.389-10.192z" transform="translate(52.53 151.15)" stroke="#434343" stroke-linecap="round" fill="#434343"/>
      <path id="path4738" stroke-linejoin="round" style="color:#000000" d="m466.02 257.01-7.7331-8.0632 5.9967-12.51c9.3958-18.751 17.784-21.843 26.793-14.262 3.7503 3.1556 5.3551 9.3772 3.9281 14.776-0.59073 2.235-4.0044 8.0199-7.5859 13.35-3.5815 5.3297-7.4792 10.891-7.8376 12.523-0.35849 1.6322-0.21916 5.4917-0.67892 5.7759-0.45976 0.28415-5.6571-4.8238-10.726-9.7034l-2.1568-1.8872z" transform="translate(52.53 151.15)" stroke="#434343" stroke-linecap="round" fill="#434343"/>
      <rect id="rect2818" stroke-linejoin="round" ry="5.3837" style="color:#000000" transform="rotate(38.669)" height="10.767" width="601.71" stroke="#ffc7c7" stroke-linecap="round" y="239.19" x="264.65" stroke-width=".2"/>
      <path id="path4600" d="m11.793 345.53c24.506-28.2 51.593-145.4 106.14-147.42 18.815-3.5938 205.68 172.75 283.41 219.35-22.073-12.227-79.899 121.52-111.23 150.95" transform="translate(52.53 15.031)" stroke="#000" stroke-width="1px" fill="none"/>
      <path id="path4602" d="m401.04 417.3c1.392 0.77334 6.8881 3.0236 9.5701 10.575 2.8828 10.513-11.823 26.289-2.5653 32.045 37.332 23.211 45.649-125.24 81.373-103.78 0 0-259.1-199.97-284.22-199.31-28.699 1.4582-52.575 62.785-52.575 62.785" transform="translate(52.53 15.031)" stroke="#000" stroke-width="1px" fill="none"/>
      <path id="path4604" d="m489.08 355.89c1.9487 1.1014 11.377 7.215 4.4774 22.251-2.2888 4.9874-20.597 24.421-11.846 30.375 28.537 19.415 71.677-101.73 71.677-101.73-75.351-29.679-148.59-98.942-261.32-170.17-3.4029 24.688-23.178 39.927-32.834 50.024" transform="translate(52.53 15.031)" stroke="#000" stroke-width="1px" fill="none"/>
      <path id="path4659" d="m480.71 271.54-22.74-21.74" transform="translate(52.53 151.15)" stroke="#000" stroke-width="1px" fill="none"/>
      <path id="path4661" d="m408.14 323.87l-33.411-22.256" transform="translate(52.53 151.15)" stroke="#000" stroke-width="1px" fill="none"/>
      <path id="path4663" d="m53.544 239.99c34.186-51.48 42.952-121.45 103.27-153.94" transform="translate(52.53 151.15)" stroke="#000" stroke-width="1px" fill="none"/>
      <path id="path4663-6" d="m151.01 428.91c34.19-51.48 43.91-121.45 104.22-153.94" stroke="#000" stroke-width="1px" fill="none"/>
      <path id="path4663-0" d="m196.91 467.16c43.75-56.27 52.03-113.09 104.69-153.23" stroke="#000" stroke-width="1px" fill="none"/>
      <path id="path4663-7" d="m247.58 507.32c42.8-47.66 48.93-119.55 102.55-152.99" stroke="#000" stroke-width="1px" fill="none"/>
      <path id="path4663-2" d="m293.48 546.52c42.79-48.62 51.56-109.98 109-150.12" stroke="#000" stroke-width="1px" fill="none"/>
      <path id="path4714" d="m69.799 97.527c116.36 84.173 197.22 175.87 284.93 234.25" transform="translate(52.53 151.15)" stroke="#000" stroke-width="1px" fill="none"/>
      <path id="path4716" d="m38.005 158.96c115.7 73.84 177.14 156.09 285.18 225.89" transform="translate(52.53 151.15)" stroke="#000" stroke-width="1px" fill="none"/>
      <path id="path4718" stroke-linejoin="round" style="color:#000000" d="m92.097 112.97c-10.11-7.73-18.88-14.553-19.491-15.164-0.841-0.842 0.397-3.027 5.135-9.06 10.339-13.164 19.661-20.506 30.159-23.747 8.5214-2.632 11.929-2.421 18.242 1.1297 7.6678 4.3125 27.845 18.767 27.845 19.948 0 0.28644-1.3984 1.3195-3.1075 2.2957-10.914 6.2339-25.856 19.87-34.915 31.864-2.8798 3.8126-5.2914 6.8995-5.3592 6.8597-0.0678-0.0399-8.3946-6.3966-18.504-14.126v0z" transform="translate(52.53 151.15)" stroke="#000" stroke-linecap="round"/>
      <path id="path4720" stroke-linejoin="round" style="color:#000000" d="m199.88 202.51c-2.8924-2.6975-13.219-11.784-22.948-20.192-9.7288-8.4082-17.832-15.651-18.008-16.095-0.38565-0.9763 4.5999-7.5472 12.782-16.826 6.815-7.7283 16.636-16.367 25.434-21.711l5.6104-2.568 22.007 18.426c12.104 10.134 22.387 18.733 22.246 19.11-0.14071 0.37622-4.3869 4.0249-8.8305 8.1083-10.315 9.4787-17.735 17.838-25.173 28.359-3.2528 4.6015-5.76 9.4362-6.2958 9.4161-0.53581-0.02-3.9332-3.3297-6.8255-6.0272z" transform="translate(52.53 151.15)" stroke="#000" stroke-linecap="round"/>
      <path id="path4722" stroke-linejoin="round" style="color:#000000" d="m299.22 288.91c-2.3152-1.8808-13.03-10.931-23.811-20.112-10.781-9.1808-19.766-16.821-19.968-16.978-0.20163-0.15704 2.8874-5.1718 6.8645-11.144 8.4897-12.748 17.941-23.183 27.921-30.827l7.1695-5.4914 4.6615 3.7165c29.238 23.311 47.033 36.969 46.433 37.454-0.40135 0.32453-4.9104 3.2398-8.6522 6.237-9.3435 7.4841-20.88 19.698-29.33 31.052l-7.0798 9.5129-4.2095-3.4197z" transform="translate(52.53 151.15)" stroke="#000" stroke-linecap="round"/>
      <path id="path4724" stroke-linejoin="round" style="color:#000000" d="m219.04 303.32c-20.2-17.492-41.597-36.908-41.408-37.578 0.37209-1.3224 21.715-41.059 25.54-47.55 1.9541-3.3164 3.6058-7.083 4.0326-6.9219 1.4749 0.55676 45.296 40.574 45.04 41.104-5.1733 10.71-27.568 55.504-27.741 55.488-0.13457-0.0128-2.5928-2.0566-5.4628-4.5417z" transform="translate(52.53 151.15)" stroke="#000" stroke-linecap="round"/>
      <path id="path4726" stroke-linejoin="round" style="color:#000000" d="m311.19 375.47c-6.3567-4.3054-17.352-12.096-24.433-17.312l-12.876-9.4843 8.7169-15.854c12.2-22.189 20.618-36.411 21.551-36.411 0.43645 0 6.9511 4.7446 14.477 10.543 7.5259 5.7989 18.459 13.866 24.296 17.928l10.613 7.3843-3.5492 5.7369c-1.9521 3.1553-8.8166 14.665-15.255 25.577-6.438 10.912-11.768 19.813-11.844 19.78-0.0765-0.0332-5.34-3.5829-11.697-7.8882v0z" transform="translate(52.53 151.15)" stroke="#000" stroke-linecap="round"/>
      <path id="path4728" stroke-linejoin="round" style="color:#000000" d="m123.9 220.92c-0.72194-1.1681-20.285-16.796-32.302-25.805-5.1274-3.8437-9.3225-7.3949-9.3225-7.8915 0-2.0559 17.349-37.6 22.904-46.927l6.0057-10.082 18.771 15.326c26.996 22.042 26.3 19.914 24.752 22.347-6.1841 9.7208-10.956 17.864-19.16 34.575-5.2286 10.649-9.8628 19.362-10.298 19.362-0.4353 0-1.0432-0.40726-1.3508-0.90503z" transform="translate(52.53 151.15)" stroke="#000" stroke-linecap="round"/>
      <path id="path4730" stroke-linejoin="round" style="color:#000000" d="m33.904 223.54c-10.473-8.46-18.939-15.73-18.815-16.16 0.12436-0.4265 1.6797-3.0518 3.4563-5.834s6.9894-13.019 11.584-22.747c4.5946-9.7288 8.4409-17.784 8.5474-17.9 0.26824-0.29272 10.966 6.857 27.046 18.076l13.57 9.4675-5.2536 11.194c-6.142 13.087-14.189 28.44-18.24 34.798l-2.8545 4.4814-19.041-15.38z" transform="translate(52.53 151.15)" stroke="#000" stroke-linecap="round"/>
      <path id="path4732" stroke-linejoin="round" style="color:#000000" d="m122.91 294.91c-12.095-9.7257-21.862-18.164-21.705-18.752 0.15782-0.58794 2.3783-4.6097 4.9344-8.9373s8.2615-15.389 12.679-24.582l8.0311-16.713 11.894 10.043c16.966 14.325 34.789 30.003 35.152 30.922 0.63945 1.6181-26.929 45.856-28.503 45.739-0.27018-0.0201-10.387-7.994-22.483-17.72z" transform="translate(52.53 151.15)" stroke="#000" stroke-linecap="round"/>
      <path id="path4734" stroke-linejoin="round" style="color:#000000" d="m220.76 373.21c-12.276-9.8017-22.464-17.934-22.639-18.071-0.17552-0.13742 2.2368-3.6201 5.3608-7.7393 6.7546-8.9065 11.939-17.066 17.692-27.848l4.2309-7.9283 13.319 11.275c10.337 8.7509 24.626 20.34 31.877 25.855 1.1924 0.90687-16.945 29.637-24.135 38.23l-3.3861 4.0471-22.32-17.821z" transform="translate(52.53 151.15)" stroke="#000" stroke-linecap="round"/>
      <path id="path4740" d="m195.05 116.65c18.94-23.359 31.66-76.36 54.09-72.256" transform="translate(52.53 151.15)" stroke="#000" stroke-width="1px" fill="none"/>
      <path id="path4742" d="m244.36 157.35c22.263-22.639 33.968-81.211 52.588-80.088" transform="translate(52.53 151.15)" stroke="#000" stroke-width="1px" fill="none"/>
      <path id="path4744" d="m287.62 194.83c19.384-15.275 41.711-94.064 58.689-82.182" transform="translate(52.53 151.15)" stroke="#000" stroke-width="1px" fill="none"/>
      <path id="path4746" d="m337.43 234.8c23.227-24.331 37.613-93.73 58.056-85.684" transform="translate(52.53 151.15)" stroke="#000" stroke-width="1px" fill="none"/>
      <path id="path4748" d="m388.59 272.99c14.246-15.301 25.681-92.47 49.099-92.276" transform="translate(52.53 151.15)" stroke="#000" stroke-width="1px" fill="none"/>
      <path id="path4750" d="m175.67 41.491c100.85 107.6 192.77 142.09 272.76 230.06" transform="translate(52.53 151.15)" stroke="#000" stroke-width="1px" fill="none"/>
      <path id="path4752" stroke-linejoin="round" style="color:#000000" d="m177.33 101.48c-9.4975-7.6964-18.663-15.069-20.368-16.384l-3.1-2.3904 5.8-11.768c6.3527-12.889 15.126-27.198 16.406-26.758 0.44616 0.15367 9.1964 8.627 19.445 18.83l18.634 18.55-5.8744 11.09c-3.2309 6.0997-7.6294 13.73-9.7744 16.957l-3.9 5.8662-17.268-13.993z" transform="translate(52.53 151.15)" stroke="#000" stroke-linecap="round"/>
      <path id="path4754" stroke-linejoin="round" style="color:#000000" d="m267.65 176.72c-10.716-8.9548-21.299-18.068-22.003-18.739-1.0612-1.0107 0.54562-0.75093 3.3922-4.4801 3.7623-4.9289 9.375-14.313 13.466-22.513 1.4429-2.8924 2.5169-7.1495 2.6894-7.3414 0.29401-0.32714 36.369 27.809 41.94 32.458l2.5562 2.1332-5.7325 11.463c-7.0575 12.893-13.86 22.068-16.112 23.475-1.4545 0.90835-3.5516-2.5478-20.196-16.456z" transform="translate(52.53 151.15)" stroke="#000" stroke-linecap="round"/>
      <path id="path4756" stroke-linejoin="round" style="color:#000000" d="m377.72 264.26c-5.5218-3.9216-16.603-12.144-24.625-18.272l-14.585-11.142 2.3302-2.4469c3.0905-3.2453 7.9712-11.45 14.978-25.18l5.7461-11.259 10.229 7.8644c5.6261 4.3254 15.452 12.174 21.834 17.442l11.605 9.5774-3.647 10.55c-5.021 14.525-10.271 26.799-12.207 28.541-1.4753 1.3271-2.5114 0.82291-11.659-5.6736z" transform="translate(52.53 151.15)" stroke="#000" stroke-linecap="round"/>
      <path id="path4758" stroke-linejoin="round" style="color:#000000" d="m436.52 257.73c-6.8355-6.9896-16.167-16.098-20.736-20.24l-8.3075-7.532 3.773-10.04c5.6648-15.074 11.772-27.129 16.148-31.876 4.3659-4.7364 8.9146-7.1318 10.798-5.6866 0.65688 0.5039 11.032 8.4062 23.057 17.561l23.048 17.435-4.8079 0.0668c-7.9565 1.8817-16.78 15.665-25.778 40.268-2.5003 6.8365-4.5955 12.502-4.656 12.591-0.0605 0.0886-5.7026-5.5577-12.538-12.547v0z" transform="translate(52.53 151.15)" stroke="#000" stroke-linecap="round"/>
      <path id="path4760" stroke-linejoin="round" style="color:#000000" d="m336.65 174.89c-12.862-9.4608-23.507-17.483-23.8-17.615-1.8065-0.81584 11.988-27.837 15.59-33.206 4.8902-7.2902 11.135-11.982 13.978-11.982 1.7902 0 9.2862 5.7209 25.378 17.596 12.561 9.2691 23.997 17.747 24.204 17.931 0.20674 0.18441-1.4293-0.1188-2.4249 0.23429-6.8571 2.432-13.097 12.412-22.511 32.129-3.5972 7.5343-6.65 12.19-6.7841 12.163-0.1341-0.0273-10.768-7.7902-23.63-17.251z" transform="translate(52.53 151.15)" stroke="#000" stroke-linecap="round"/>
      <path id="path4762" stroke-linejoin="round" style="color:#000000" d="m257.67 116.32c-15-12.52-31.29-27.09-35.67-31.016l-5.1308-4.5942 3.5751-7.0992c8.3484-16.578 15.889-25.572 23.301-27.793 4.5523-1.3639 1.9583-2.8023 30.979 17.178 18.361 12.641 19.836 12.563 17.723 13.923-5.5939 3.6004-10.777 10.232-18.765 26.509-4.568 9.3084-8.2404 18.175-8.7663 18.191-0.52589 0.0154-4.8736-3.3207-7.2401-5.2948z" transform="translate(52.53 151.15)" stroke="#000" stroke-linecap="round"/>
      <path id="path4764" d="m270.59 39.202c75.525 43.724 161.12 124.3 258.16 186.45" transform="translate(52.53 151.15)" stroke="#000" stroke-width="1px" fill="none"/>
      <path id="path4766" d="m335.35 28.173c-5.0901 35.404-19.271 34.502-31.101 54.764" transform="translate(52.53 151.15)" stroke="#000" stroke-width="1px" fill="none"/>
      <path id="path4768" d="m382 63.331c-6.59 29.468-19.56 37.879-27.72 54.759" transform="translate(52.53 151.15)" stroke="#000" stroke-width="1px" fill="none"/>
      <path id="path4770" d="m423.92 91.727c-7.602 39.181-17.598 33.283-22.311 60.849" transform="translate(52.53 151.15)" stroke="#000" stroke-width="1px" fill="none"/>
      <path id="path4772" d="m465.16 121.48c-5.3804 32.563-11.4 39.619-20.283 64.906" transform="translate(52.53 151.15)" stroke="#000" stroke-width="1px" fill="none"/>
      <path id="path4774" d="m508.43 149.87c-4.3229 19.532-11.256 41.438-27.044 62.877" transform="translate(52.53 151.15)" stroke="#000" stroke-width="1px" fill="none"/>
      <path id="path4776" stroke-linejoin="round" style="color:#000000" d="m305.46 60.335c-5.3919-3.7028-14.976-9.9535-21.297-13.89-6.3216-3.9369-11.627-7.2715-11.79-7.4102-0.16274-0.13869 0.93099-1.5388 2.4305-3.1114 8.0543-8.4468 14.718-20.171 17.094-30.073 0.46829-1.952 0.9523-3.5492 1.0756-3.5492 0.33032 0 24.172 15.422 33.419 21.617l7.9805 5.3466-0.60462 3.2516c-2.5076 13.486-8.2186 24.888-16.24 32.423l-2.2648 2.1276-9.8035-6.7324z" transform="translate(52.53 151.15)" stroke="#000" stroke-linecap="round"/>
      <path id="path4778" stroke-linejoin="round" style="color:#000000" d="m385.15 119.38-20.646-15.961 3.5335-5.431c7.1131-10.933 9.809-16.784 13.108-28.448l1.7294-6.1149 20.017 14.444 20.017 14.444-1.2726 5.5313c-2.6284 11.424-5.3425 18.404-11.538 29.672l-4.302 7.8246-20.646-15.961z" transform="translate(52.53 151.15)" stroke="#000" stroke-linecap="round"/>
      <path id="path4780" stroke-linejoin="round" style="color:#000000" d="m470.94 184.61c-10.314-7.4927-18.757-13.962-18.762-14.375-0.005-0.41367 0.85365-2.8476 1.9076-5.4088 4.5597-11.081 8.7682-25.55 10.932-37.584l0.81475-4.5315 6.8596 4.597c8.096 5.4257 27.042 17.302 31.919 20.007l3.4238 1.8998-0.85111 2.7731c-0.46812 1.5252-1.9118 6.6038-3.2081 11.286-2.7699 10.004-6.3883 19.377-10.977 28.436l-3.305 6.524-18.753-13.623z" transform="translate(52.53 151.15)" stroke="#000" stroke-linecap="round"/>
      <path id="path4782" stroke-linejoin="round" style="color:#000000" d="m423.38 168.79-21.021-15.902 1.2026-5.1491c0.66142-2.832 1.6155-6.1269 2.1202-7.322l0.91763-2.1728 7.069 5.5139c3.888 3.0326 13.306 10.22 20.929 15.972 7.623 5.7522 14.133 10.697 14.466 10.99 0.34487 0.30236-0.49228 3.4581-1.9441 7.3287-1.4024 3.7387-2.5877 6.7631-2.634 6.7208s-9.5436-7.2328-21.105-15.979z" transform="translate(52.53 151.15)" stroke="#000" stroke-linecap="round"/>
      <path id="path4784" stroke-linejoin="round" style="color:#000000" d="m330.81 100.24c-12.271-8.9349-22.893-16.663-23.604-17.173-1.2579-0.90282-1.2464-0.99662 0.43222-3.5332 1.9592-2.9605 7.2014-9.178 8.0037-9.4928 0.60483-0.2373 5.5681 3.3105 29.028 20.749 9.1105 6.7723 16.661 12.59 16.78 12.927 0.11831 0.33766-0.97863 2.3772-2.4377 4.5323-1.459 2.1551-3.1609 4.9071-3.782 6.1157-0.62108 1.2085-1.3496 2.1798-1.6189 2.1585-0.26935-0.0214-10.53-7.3492-22.801-16.284z" transform="translate(52.53 151.15)" stroke="#000" stroke-linecap="round"/>
      <path id="path4786" stroke-linejoin="round" style="color:#000000" d="m483.42 272.06c-5.1803-3.1584-3.9792-7.706 5.8016-21.966 7.1529-10.429 9.1247-17.631 6.5283-23.845-1.3297-3.1825-2.9236-4.8655-8.588-9.0683-2.51-1.8623-5.3537-3.6719-5.3537-4.0212 0-0.54042 7.0469-10.964 8.4505-12.609 0.25953-0.30422 3.3954 2.6191 7.21 5.2894s12.352 8.4322 18.973 12.804l12.037 7.9491-4.412 8.032c-16.581 30.185-30.904 43.376-40.647 37.436z" transform="translate(52.53 151.15)" stroke="#000" stroke-linecap="round"/>
    </g>
  </g>
  <metadata>
    <rdf:RDF>
      <cc:Work>
        <dc:format>image/svg+xml</dc:format>
        <dc:type rdf:resource="http://purl.org/dc/dcmitype/StillImage"/>
        <cc:license rdf:resource="http://creativecommons.org/licenses/publicdomain/"/>
        <dc:publisher>
          <cc:Agent rdf:about="http://openclipart.org/">
            <dc:title>Openclipart</dc:title>
          </cc:Agent>
        </dc:publisher>
        <dc:title>Wavy checkered flag</dc:title>
        <dc:date>2010-05-25T14:01:00</dc:date>
        <dc:description>A checkered flag, used to mark the end of a car race, wavy version. Drawn in Inkscape.</dc:description>
        <dc:source>http://openclipart.org/detail/62779/wavy-checkered-flag-by-j_alves</dc:source>
        <dc:creator>
          <cc:Agent>
            <dc:title>J_Alves</dc:title>
          </cc:Agent>
        </dc:creator>
        <dc:subject>
          <rdf:Bag>
            <rdf:li>automotive</rdf:li>
            <rdf:li>car</rdf:li>
            <rdf:li>checkered</rdf:li>
            <rdf:li>clip art</rdf:li>
            <rdf:li>clipart</rdf:li>
            <rdf:li>finish</rdf:li>
            <rdf:li>flag</rdf:li>
            <rdf:li>race</rdf:li>
            <rdf:li>racing</rdf:li>
            <rdf:li>sports</rdf:li>
            <rdf:li>sports2010</rdf:li>
            <rdf:li>victory</rdf:li>
          </rdf:Bag>
        </dc:subject>
      </cc:Work>
      <cc:License rdf:about="http://creativecommons.org/licenses/publicdomain/">
        <cc:permits rdf:resource="http://creativecommons.org/ns#Reproduction"/>
        <cc:permits rdf:resource="http://creativecommons.org/ns#Distribution"/>
        <cc:permits rdf:resource="http://creativecommons.org/ns#DerivativeWorks"/>
      </cc:License>
    </rdf:RDF>
  </metadata>
</svg>
