<svg xmlns="http://www.w3.org/2000/svg" version="1.0" preserveAspectRatio="xMidYMid meet" viewBox="0.27 0 1278.92 811.31">
<metadata>
Created by potrace 1.15, written by Peter Selinger 2001-2017
</metadata>
<g transform="translate(0.000000,812.000000) scale(0.100000,-0.100000)" fill="#50A17E" stroke="none">
<path d="M4569 8092 c-120 -77 -120 -76 63 -622 80 -239 173 -514 206 -610 82 -237 273 -795 328 -955 24 -71 209 -603 410 -1181 l366 -1051 -643 -1299 c-942 -1906 -1069 -2164 -1069 -2177 0 -23 48 -112 71 -134 23 -21 88 -53 107 -53 5 0 19 21 30 47 11 27 109 228 217 448 109 220 469 956 802 1635 333 679 614 1253 625 1275 l21 39 13 -34 c7 -19 42 -114 78 -210 35 -96 141 -384 236 -640 186 -503 200 -541 405 -1095 75 -203 156 -424 181 -490 24 -66 116 -313 204 -550 155 -418 160 -430 185 -428 39 3 78 36 123 106 l42 63 -64 169 c-66 176 -529 1407 -758 2015 -71 190 -211 561 -310 824 l-180 479 35 76 c145 316 1523 3137 1803 3690 231 456 236 470 195 537 -20 33 -75 64 -114 64 -20 0 -28 -10 -52 -67 -16 -38 -52 -113 -80 -168 -29 -55 -236 -464 -460 -910 -224 -445 -438 -868 -475 -940 -37 -71 -253 -499 -480 -950 -504 -1000 -529 -1049 -535 -1033 -8 21 -113 333 -505 1493 -60 176 -194 574 -300 885 -105 311 -231 682 -280 825 -108 320 -259 756 -293 850 -26 70 -55 105 -86 105 -9 0 -37 -13 -62 -28z"/>
<path d="M9300 8090 c-283 -20 -576 -80 -834 -172 l-89 -32 -139 -285 c-77 -157 -313 -644 -526 -1081 -212 -437 -394 -810 -405 -829 -39 -71 -985 -1967 -991 -1988 -18 -58 32 -77 128 -48 76 23 337 72 491 92 197 25 792 25 1010 0 210 -25 455 -63 620 -98 77 -16 144 -29 150 -29 26 0 94 155 212 480 47 129 89 243 95 253 5 10 8 21 5 23 -2 3 -33 9 -68 15 -86 13 -210 50 -215 64 -4 8 307 729 319 741 2 2 38 -3 81 -11 104 -20 103 -20 122 23 96 224 293 734 310 805 6 25 4 27 -23 27 -16 0 -37 6 -46 13 -19 14 1 61 200 487 60 129 123 266 138 303 23 55 42 81 97 132 130 120 352 249 683 395 179 79 274 129 285 149 5 10 4 36 -2 64 -12 58 -76 120 -211 203 -235 146 -532 247 -844 289 -140 18 -407 26 -553 15z m425 -240 c116 -13 338 -50 347 -59 4 -4 -37 -101 -91 -216 -106 -227 -183 -405 -226 -527 -15 -43 -28 -78 -29 -78 0 0 -67 22 -149 50 -181 61 -318 89 -509 104 l-147 11 137 335 137 334 58 18 c114 35 306 46 472 28z m-946 -836 c5 -4 -16 -54 -167 -393 l-127 -283 -110 6 c-60 3 -212 6 -337 7 -124 0 -228 3 -231 5 -3 3 14 44 37 92 23 48 94 199 157 335 l114 248 330 -7 c182 -4 332 -8 334 -10z m171 -844 c206 -45 381 -83 388 -85 9 -4 5 -17 -16 -47 -63 -92 -211 -384 -316 -622 -22 -51 -29 -58 -48 -53 -13 3 -180 40 -373 83 -192 42 -352 78 -354 80 -2 2 9 32 24 66 15 35 61 144 102 243 137 329 184 426 202 421 9 -3 185 -42 391 -86z m-1065 -696 c68 -5 192 -27 201 -36 2 -3 -13 -43 -35 -89 -21 -46 -84 -199 -139 -339 -55 -140 -109 -276 -121 -301 l-20 -45 -73 13 c-103 18 -418 27 -578 15 -74 -6 -137 -8 -139 -6 -3 3 80 175 184 384 143 286 194 380 209 384 33 7 176 26 231 29 53 4 162 0 280 -9z m342 -975 c192 -45 352 -85 356 -89 7 -6 -33 -106 -174 -424 l-43 -98 -46 6 c-25 3 -209 20 -410 37 -201 18 -366 33 -368 34 -1 1 45 91 103 199 58 108 130 246 160 306 30 61 60 110 65 110 5 0 166 -37 357 -81z"/>
<path d="M3120 8035 c-185 -26 -309 -61 -466 -135 -134 -63 -260 -147 -324 -217 -80 -87 -80 -91 4 -139 164 -94 317 -204 494 -358 142 -122 316 -298 330 -333 33 -80 163 -706 150 -719 -3 -2 -21 -7 -40 -10 l-34 -6 -54 267 c-30 147 -58 272 -62 278 -5 8 -23 -6 -52 -39 -86 -98 -195 -148 -351 -163 -125 -11 -501 33 -1765 210 -943 132 -936 131 -947 104 -3 -9 15 -69 40 -133 82 -211 143 -435 337 -1237 51 -209 132 -542 180 -740 142 -583 206 -847 259 -1065 42 -175 241 -1086 241 -1105 0 -10 331 -167 470 -222 254 -102 447 -149 670 -164 80 -6 153 -15 163 -20 40 -22 466 30 606 73 61 19 214 87 326 145 181 94 374 302 484 521 41 82 97 248 111 334 10 59 9 78 -9 155 -21 93 -174 748 -335 1436 -54 229 -96 428 -95 455 l0 47 16 -32 c18 -36 51 -44 73 -18 7 8 16 15 20 15 10 0 79 -249 143 -520 l54 -225 -36 -22 c-20 -13 -40 -24 -46 -26 -5 -2 9 -82 34 -188 112 -476 164 -685 171 -693 5 -5 101 3 222 18 491 60 786 74 1133 57 492 -25 511 -25 558 -7 57 21 72 49 63 117 -13 95 -333 1035 -841 2469 -75 212 -190 536 -255 720 -235 665 -361 1015 -368 1022 -4 4 -85 14 -180 23 -96 8 -242 26 -325 40 -84 13 -199 29 -256 35 -138 13 -394 11 -511 -5z m559 -283 l45 -7 33 -85 c68 -173 190 -556 181 -565 -4 -4 -771 -43 -776 -40 -1 1 -40 139 -86 307 -46 167 -87 314 -90 326 -7 21 -4 22 56 23 35 0 142 11 238 24 177 23 318 29 399 17z m875 -782 c64 -17 127 -41 143 -55 7 -5 243 -689 241 -695 -3 -7 -110 13 -318 60 -62 14 -145 24 -240 27 l-145 5 -79 302 c-101 387 -97 352 -50 365 68 17 96 19 234 16 98 -2 157 -9 214 -25z m-3479 -580 c32 -5 138 -17 235 -25 315 -28 360 -35 370 -59 15 -36 231 -864 233 -892 2 -25 -3 -29 -38 -37 -67 -15 -239 0 -380 33 -71 17 -167 34 -213 39 -46 5 -84 10 -86 12 -1 2 -12 60 -24 129 -13 68 -49 237 -82 375 -87 371 -100 435 -86 435 6 0 38 -5 71 -10z m1954 -127 c52 -192 111 -472 105 -498 -11 -51 -65 -144 -107 -182 -38 -34 -154 -94 -207 -106 -25 -6 -27 -4 -63 126 -20 73 -57 222 -82 332 -25 110 -47 210 -50 222 -5 20 -1 21 83 25 98 5 168 28 247 82 28 19 53 34 57 35 4 1 12 -16 17 -36z m1149 -205 c22 -68 57 -195 77 -283 21 -88 48 -203 61 -255 12 -52 21 -96 19 -98 -2 -2 -113 -10 -247 -17 -250 -14 -347 -25 -432 -50 -27 -8 -50 -14 -52 -12 -2 2 -109 395 -173 637 -17 63 -27 117 -23 121 14 13 137 47 212 58 41 6 86 13 100 15 14 2 114 4 222 5 l197 1 39 -122z m-3394 -638 c170 -44 310 -81 311 -82 7 -8 60 -210 114 -428 33 -135 63 -253 66 -262 5 -12 -5 -20 -42 -32 -192 -66 -401 -22 -532 112 l-56 58 -49 204 c-64 273 -113 471 -121 493 -4 9 -6 17 -4 17 2 0 143 -36 313 -80z m1659 -106 l239 -6 19 -32 c34 -55 78 -210 114 -403 43 -230 60 -305 79 -361 l15 -42 -49 -25 c-148 -75 -337 -72 -543 7 -54 21 -81 37 -86 52 -11 27 -211 802 -211 815 0 5 39 8 93 5 50 -2 199 -7 330 -10z m2356 -54 c132 -14 277 -45 410 -88 l113 -37 29 -79 c42 -115 122 -354 162 -483 26 -83 32 -113 22 -113 -7 0 -87 18 -177 39 -259 63 -338 74 -501 75 l-148 1 -14 50 c-45 160 -165 613 -165 623 0 20 135 26 269 12z m-1396 -650 c14 -52 42 -153 62 -225 88 -318 54 -449 -159 -614 -59 -46 -109 -81 -111 -79 -2 2 -45 178 -95 391 -66 281 -89 391 -82 404 6 10 39 33 74 53 55 31 76 52 163 167 l100 132 11 -67 c6 -37 23 -110 37 -162z m-1755 -190 c228 -12 350 -25 445 -46 61 -14 70 -20 93 -55 13 -22 38 -80 54 -128 30 -88 136 -537 147 -617 l5 -42 -62 -7 c-78 -9 -144 -3 -410 41 -118 19 -235 38 -260 42 l-44 7 -37 155 c-82 348 -150 636 -154 648 -5 15 -19 14 223 2z m2991 -189 c77 -193 107 -296 113 -381 l3 -55 -355 -32 c-195 -18 -361 -32 -369 -30 -10 1 -32 92 -77 327 -35 178 -62 326 -59 328 3 3 345 15 602 20 l71 2 71 -179z m-3462 -700 c90 -26 225 -51 278 -51 96 0 101 -4 124 -90 17 -61 94 -433 104 -498 3 -19 -246 -16 -361 4 -82 14 -200 49 -214 62 -4 4 -26 84 -48 177 -92 387 -110 466 -110 474 0 5 36 -6 79 -24 44 -19 110 -43 148 -54z m1945 -166 c34 -139 93 -464 85 -471 -3 -4 -66 -22 -139 -41 -109 -29 -152 -36 -238 -37 -150 -1 -154 0 -178 81 -24 78 -122 460 -122 474 0 5 21 9 48 9 107 1 421 61 471 90 35 21 46 7 73 -105z m610 -225 c0 -118 -40 -240 -116 -354 -63 -94 -145 -175 -157 -154 -3 7 -21 61 -38 120 l-32 108 37 32 c90 79 157 169 235 316 l44 84 14 -34 c8 -19 13 -69 13 -118z m-1781 -374 c69 -14 163 -30 208 -36 90 -12 299 -15 355 -5 32 6 36 4 60 -32 35 -53 50 -100 86 -265 16 -79 33 -152 36 -164 15 -56 -284 -94 -471 -59 -90 16 -314 70 -320 77 -1 1 -26 111 -54 243 -29 132 -55 248 -58 258 -4 15 -1 18 14 13 10 -3 75 -17 144 -30z"/>
<path d="M2124 7455 c-25 -39 -14 -93 71 -351 79 -240 169 -441 240 -536 41 -56 36 -55 210 -33 140 17 208 36 285 76 45 24 63 42 98 96 67 106 64 115 -68 255 -232 245 -478 417 -717 499 -75 26 -99 24 -119 -6z"/>
<path d="M10849 7386 c-98 -41 -459 -226 -574 -295 -70 -41 -150 -99 -223 -160 -63 -53 -96 -129 -90 -202 11 -114 143 -298 267 -373 62 -38 174 -80 237 -89 l40 -7 238 537 c261 591 265 606 196 610 -19 2 -60 -8 -91 -21z"/>
<path d="M9871 6604 c-18 -42 -77 -208 -131 -368 -54 -160 -123 -361 -153 -446 -31 -85 -79 -222 -107 -305 -28 -82 -73 -213 -100 -290 -27 -77 -186 -539 -354 -1027 -216 -626 -321 -918 -357 -990 -51 -102 -52 -103 -46 -178 17 -226 147 -488 337 -681 184 -185 397 -284 690 -319 429 -51 1121 100 1542 336 156 88 334 227 362 283 21 41 630 1867 894 2681 39 118 102 312 140 430 179 548 213 663 202 674 -8 8 -43 0 -133 -31 -248 -86 -491 -142 -827 -189 -283 -40 -1136 -59 -1330 -29 -229 35 -354 103 -453 249 -42 62 -111 202 -122 249 -4 15 -11 27 -15 27 -4 0 -22 -34 -39 -76z m2729 -473 c0 -23 -251 -735 -263 -747 -8 -9 -647 -160 -647 -154 0 4 23 61 51 126 58 135 145 393 179 533 19 76 27 95 44 99 75 21 604 150 619 151 9 1 17 -3 17 -8z m-1673 -170 c-2 -9 -32 -157 -68 -328 -35 -172 -68 -313 -73 -313 -13 0 -560 210 -568 218 -5 5 98 389 126 467 2 7 104 3 295 -9 254 -17 292 -22 288 -35z m-1050 -202 c51 -74 129 -154 183 -189 28 -18 50 -34 50 -37 0 -10 -62 -219 -106 -361 -54 -172 -103 -302 -114 -302 -16 0 -157 119 -213 179 -63 69 -98 128 -99 169 -1 22 193 647 210 676 2 4 16 -14 31 -40 15 -27 41 -70 58 -95z m1187 -600 c56 -6 188 -12 293 -12 121 -1 193 -6 193 -12 0 -8 -229 -637 -234 -641 -3 -4 -636 82 -640 87 -5 4 40 156 149 513 l27 89 55 -7 c31 -4 101 -11 157 -17z m-1108 -485 c152 -123 304 -179 522 -191 68 -4 102 -10 99 -17 -14 -39 -72 -222 -106 -336 -22 -74 -58 -188 -81 -252 l-42 -118 -68 0 c-194 0 -440 85 -592 204 l-56 45 35 93 c53 141 129 349 181 491 25 70 47 127 49 127 2 0 28 -20 59 -46z m2069 -261 c-18 -49 -70 -204 -116 -346 -82 -256 -84 -259 -119 -277 -64 -32 -186 -68 -286 -84 -84 -14 -314 -36 -321 -31 -8 5 188 654 206 684 5 7 30 15 57 17 247 22 344 41 494 93 126 44 123 46 85 -56z m-2637 -320 l142 -171 -39 -114 c-22 -62 -80 -221 -129 -353 -49 -132 -93 -250 -97 -262 -3 -13 -10 -23 -15 -23 -19 0 -132 95 -171 143 -50 62 -110 184 -111 224 0 15 36 127 81 248 45 121 105 282 133 358 28 76 54 134 58 130 4 -4 71 -85 148 -180z m1267 -458 c110 0 242 4 293 8 86 8 92 7 92 -10 0 -32 -220 -656 -239 -675 -6 -6 -621 10 -628 16 -2 2 19 56 46 122 63 157 115 311 147 445 l26 108 32 -7 c17 -3 121 -6 231 -7z m915 -692 c-32 -135 -66 -218 -106 -252 -90 -80 -248 -172 -434 -254 -120 -52 -410 -160 -416 -154 -3 3 203 568 209 573 2 2 45 8 97 14 130 15 336 68 515 132 98 35 151 49 153 41 2 -6 -6 -51 -18 -100z m-2234 83 c142 -58 293 -85 537 -95 97 -4 180 -11 183 -14 13 -13 -114 -410 -188 -589 l-40 -97 -65 -7 c-238 -25 -535 86 -663 247 l-39 50 21 47 c11 26 40 103 64 172 63 176 116 310 124 310 4 0 33 -11 66 -24z"/>
</g>
</svg>