<svg xmlns:dc="http://purl.org/dc/elements/1.1/" xmlns:cc="http://creativecommons.org/ns#" xmlns:rdf="http://www.w3.org/1999/02/22-rdf-syntax-ns#" xmlns:svg="http://www.w3.org/2000/svg" xmlns="http://www.w3.org/2000/svg" xmlns:xlink="http://www.w3.org/1999/xlink" xmlns:sodipodi="http://sodipodi.sourceforge.net/DTD/sodipodi-0.dtd" xmlns:inkscape="http://www.inkscape.org/namespaces/inkscape" id="svg2" version="1.1" inkscape:version="0.91 r13725" sodipodi:docname="Checkerboard-A4-50mm-4x2.svg" viewBox="83.27 106.3 885.83 531.5">
  <defs id="defs4"/>
  <sodipodi:namedview id="base" pagecolor="#257B56" bordercolor="#004225" borderopacity="1.0" inkscape:pageopacity="0.0" inkscape:pageshadow="2" inkscape:zoom="0.98994949" inkscape:cx="594.7281" inkscape:cy="354.71894" inkscape:document-units="mm" inkscape:current-layer="layer1" showgrid="false" inkscape:snap-bbox="true" inkscape:bbox-nodes="true" inkscape:window-width="2079" inkscape:window-height="1367" inkscape:window-x="45" inkscape:window-y="47" inkscape:window-maximized="0"/>
  <metadata id="metadata7">
    <rdf:RDF>
      <cc:Work rdf:about="">
        <dc:format>image/svg+xml</dc:format>
        <dc:type rdf:resource="http://purl.org/dc/dcmitype/StillImage"/>
        <dc:title/>
      </cc:Work>
    </rdf:RDF>
  </metadata>
  <g inkscape:label="Layer 1" inkscape:groupmode="layer" id="layer1" transform="translate(0,-308.26772)">
    <g id="g9940" transform="translate(10.489981,4.8176262)">
      <rect y="409.7493" x="72.777718" height="177.16536" width="177.16536" id="rect8751" style="opacity:1;fill:#004225;fill-opacity:1;stroke:none;stroke-width:0.1;stroke-linecap:round;stroke-linejoin:round;stroke-miterlimit:4;stroke-dasharray:none;stroke-dashoffset:0;stroke-opacity:1"/>
      <rect y="409.7493" x="249.94305" height="177.16536" width="177.16536" id="rect8751-6" style="opacity:1;fill:#D5ECE2;fill-opacity:1;stroke:none;stroke-width:0.1;stroke-linecap:round;stroke-linejoin:round;stroke-miterlimit:4;stroke-dasharray:none;stroke-dashoffset:0;stroke-opacity:1"/>
      <use height="100%" width="100%" transform="translate(354.33072,1.8593308e-8)" id="use9644" xlink:href="#rect8751" y="0" x="0"/>
      <use height="100%" width="100%" transform="translate(354.33072,1.8593308e-8)" id="use9646" xlink:href="#rect8751-6" y="0" x="0"/>
      <use height="100%" width="100%" transform="matrix(-1,0,0,1,854.21687,177.16536)" id="use9648" xlink:href="#rect8751" y="0" x="0"/>
      <use height="100%" width="100%" transform="matrix(-1,0,0,1,854.21691,177.16536)" id="use9650" xlink:href="#rect8751-6" y="0" x="0"/>
      <use height="100%" width="100%" transform="matrix(-1,0,0,1,854.21684,177.16536)" id="use9652" xlink:href="#use9644" y="0" x="0"/>
      <use height="100%" width="100%" transform="matrix(-1,0,0,1,854.21687,177.16536)" id="use9654" xlink:href="#use9646" y="0" x="0"/>
      <use height="100%" width="100%" transform="translate(3.5715752e-7,354.33072)" id="use9656" xlink:href="#rect8751" y="0" x="0"/>
      <use height="100%" width="100%" transform="translate(-6.4284248e-7,354.33072)" id="use9658" xlink:href="#rect8751-6" y="0" x="0"/>
      <use height="100%" width="100%" transform="translate(3.5715752e-7,354.33072)" id="use9660" xlink:href="#use9644" y="0" x="0"/>
      <use height="100%" width="100%" transform="translate(-6.4284248e-7,354.33072)" id="use9662" xlink:href="#use9646" y="0" x="0"/>
      <rect style="opacity:1;fill:#004225;fill-opacity:1;stroke:none;stroke-width:0.1;stroke-linecap:round;stroke-linejoin:round;stroke-miterlimit:4;stroke-dasharray:none;stroke-dashoffset:0;stroke-opacity:1" id="rect9934" width="177.16536" height="177.16536" x="781.43915" y="409.7493"/>
      <use x="0" y="0" xlink:href="#use9646" id="use9936" transform="matrix(-1,0,0,1,1562.8783,177.16536)" width="100%" height="100%"/>
      <use x="0" y="0" xlink:href="#rect8751" id="use9938" transform="translate(708.66142,354.33072)" width="100%" height="100%"/>
    </g>
  </g>
</svg>